PathFileType	4	(X/Y/Z)	\\147.46.242.158\로컬 디스크 (e)\MOCAP Data\Iguana Capture\iguana\Project 2\Capture day 7\Session 2\Take01.trc
DataRate	CameraRate	NumFrames	NumMarkers	Units	OrigDataRate	OrigDataStartFrame	OrigNumFrames
120.0	120.0	14	23	mm	120.0	27	1930
Frame#	Time	ana:head1			ana:head2			ana:bone1			ana:bone2			ana:bone3			ana:tail1			ana:tail2			ana:tail3			ana:tail4			ana:Rforefoot1			ana:Rforefoot2			ana:Rforefoot3			ana:Lforefoot1			ana:Lforefoot2			ana:Lforefoot3			ana:RhindLeg1			ana:RhindLeg2			ana:RhindLeg3			ana:RhindLeg4			ana:LhindLeg1			ana:LhindLeg2			ana:LhindLeg3			ana:LhindLeg4			
		X1	Y1	Z1	X2	Y2	Z2	X3	Y3	Z3	X4	Y4	Z4	X5	Y5	Z5	X6	Y6	Z6	X7	Y7	Z7	X8	Y8	Z8	X9	Y9	Z9	X10	Y10	Z10	X11	Y11	Z11	X12	Y12	Z12	X13	Y13	Z13	X14	Y14	Z14	X15	Y15	Z15	X16	Y16	Z16	X17	Y17	Z17	X18	Y18	Z18	X19	Y19	Z19	X20	Y20	Z20	X21	Y21	Z21	X22	Y22	Z22	X23	Y23	Z23	

926	7.708	-46.46926	-462.36469	51.17972	-37.71276	-464.70486	53.23592	-14.78261	-466.38586	45.20392	13.91896	-466.09702	43.75713	47.35804	-470.87122	37.92078	80.20802	-475.10571	30.61055	114.91017	-480.41977	19.22082	157.07805	-492.95050	8.34641	190.76329	-511.49271	6.81073	-24.94381	-453.78088	35.92757	-11.89909	-442.10538	32.06349	-24.01536	-434.53452	17.33155	-15.86504	-478.19299	25.73335	-8.32723	-487.99384	20.31000	-13.64216	-483.55301	7.87718	51.36420	-461.60803	30.00616	56.23043	-446.25217	19.90975	72.38110	-453.10889	8.53978	56.39885	-447.24835	4.67543	47.48432	-480.43445	31.92925	46.53841	-497.84137	30.15884	69.89825	-497.92599	23.00536	74.02123	-506.11331	13.43141	
927	7.717	-48.71912	-463.09497	51.59866	-39.26822	-465.36288	53.28480	-16.52847	-466.35239	45.45473	12.09739	-465.25189	43.29662	41.78402	-469.89880	41.04052	78.13658	-475.36563	30.35223	112.95674	-480.46530	19.45883	155.20908	-492.33691	8.49680	189.17065	-510.54102	6.84762	-24.10439	-454.30722	32.49955	-15.70838	-441.59027	30.95779	-30.53665	-436.06848	17.97324	-17.04103	-478.32150	25.66570	-8.77198	-487.39023	20.26408	-13.80468	-483.40265	8.00411	49.82719	-461.08499	30.66517	56.17305	-445.39594	19.08612	71.98182	-453.32257	8.96732	56.05188	-447.19461	4.78206	45.07705	-479.55273	32.04338	41.60305	-496.82196	31.28259	63.83693	-498.41992	22.85985	65.91865	-507.68396	14.16226	
928	7.725	-50.58934	-463.49451	51.52443	-40.74445	-464.95160	52.81054	-18.32797	-466.29565	45.21597	10.25182	-464.65488	43.46908	38.93547	-469.19211	41.86033	76.18146	-475.51605	30.49352	110.89147	-480.78503	19.31942	153.46907	-492.00851	8.58185	187.63161	-509.62704	6.76769	-29.24723	-454.12445	34.98385	-19.80167	-441.13345	30.01593	-36.94239	-438.64526	19.08647	-18.24397	-478.36548	25.74646	-9.50425	-487.27505	20.50964	-13.95033	-483.36176	8.20203	44.99258	-459.94540	33.15384	55.84177	-445.00946	19.74571	71.42535	-453.50784	9.41176	55.55669	-447.12091	5.11026	42.73309	-478.89505	31.92828	36.77071	-495.07666	31.10098	57.92168	-498.71671	22.30211	57.18174	-509.01697	15.09564	
929	7.733	-52.27315	-463.70544	51.44136	-42.58260	-465.26266	52.86720	-20.08324	-466.15475	44.91413	8.44285	-463.98657	43.44001	45.57001	-467.94656	34.09309	74.20337	-475.82751	30.66358	109.11878	-480.70618	19.07579	151.72810	-492.08481	8.81542	186.01721	-509.01746	6.90956	-31.94785	-454.47543	34.58789	-24.31181	-441.16269	28.74084	-43.85960	-441.44995	21.04652	-19.37332	-478.38474	25.61727	-10.15401	-487.09457	20.65321	-11.58691	-482.10114	5.18080	46.52847	-460.38040	30.29930	55.19511	-444.96957	19.87026	70.72829	-453.66324	9.87449	54.93445	-447.03012	5.62837	40.36745	-478.42117	31.85022	31.76209	-493.34140	31.81558	50.95855	-501.02365	23.49964	47.91836	-509.19058	14.67152	
930	7.742	-54.18707	-463.84378	51.28062	-44.89311	-466.16739	53.20561	-21.93082	-466.34467	45.07611	6.49545	-463.68375	43.35361	39.41198	-468.79391	38.13939	71.73495	-475.75323	31.45032	106.91763	-481.48364	19.94090	149.73578	-491.71744	8.88402	184.45697	-508.20151	6.73243	-31.92384	-455.09897	31.64106	-29.19037	-441.32761	27.40956	-48.79200	-443.27042	20.98970	-20.72533	-478.55942	25.50693	-10.74245	-487.09787	21.28781	-7.73147	-482.09113	2.42644	45.25737	-459.91800	30.47572	54.37494	-445.20251	20.02405	69.90727	-453.78732	10.35688	54.20633	-446.92508	6.30474	37.90337	-477.99030	32.20317	27.09310	-491.44128	32.23053	45.38992	-500.45920	20.62992	37.58073	-510.05823	16.64953	
931	7.750	-55.90875	-464.19986	51.14866	-46.41696	-465.74969	52.83133	-23.67127	-466.23840	44.87180	4.64057	-463.23160	43.20488	37.45580	-468.51981	38.29318	70.05859	-476.21243	30.99171	104.73536	-481.91388	19.81313	147.87820	-491.78009	9.24425	182.67578	-507.66870	6.78322	-37.06258	-454.93552	33.72887	-33.74813	-442.11346	26.62875	-52.05663	-444.35577	18.30678	-22.05050	-478.49850	25.52489	-11.74014	-486.92816	21.26633	-4.98607	-482.12070	0.26767	43.36639	-459.64639	30.47037	53.40023	-445.20844	20.23430	68.97888	-453.87866	10.86032	53.39351	-446.80865	7.10771	35.64721	-477.55020	32.50017	22.89733	-489.58350	32.81436	38.37633	-501.60901	19.83623	28.18300	-509.05432	16.99465	
932	7.758	-57.91914	-464.56146	51.16014	-48.38894	-466.41412	52.89539	-25.66669	-466.29764	44.64317	2.63804	-462.90588	42.94339	35.51373	-468.12256	38.21040	67.25269	-477.02197	30.84901	102.68462	-482.22647	20.06537	145.87248	-491.56641	9.16942	180.95760	-507.02982	6.82329	-37.68782	-455.59119	31.14528	-38.24480	-442.97736	25.36273	-57.70127	-446.31534	19.16552	-23.48898	-478.41049	25.54669	-13.05399	-486.61960	21.54650	-3.10903	-482.18393	-1.53968	41.55127	-459.71750	30.39050	52.74960	-445.22644	20.69564	67.95975	-453.93582	11.38620	52.51716	-446.68369	8.00565	33.34225	-477.10165	32.46646	19.23990	-487.80838	33.14405	31.01549	-502.53427	18.83684	19.17010	-507.54382	16.79619	
933	7.767	-59.74151	-464.51694	51.22083	-49.96077	-466.03564	52.42963	-27.61614	-466.12866	44.25211	0.56438	-462.60248	42.97049	29.65964	-467.29080	41.43689	65.46917	-476.96362	30.24241	100.52573	-482.51608	20.30058	143.79434	-491.54547	9.61184	178.84326	-507.01508	7.21809	-42.96125	-455.56967	33.82185	-42.46640	-444.21082	24.39515	-59.98831	-446.97540	15.74599	-25.11944	-478.62308	25.70210	-14.55677	-486.20993	22.07269	-2.03840	-482.28351	-3.01060	37.73641	-459.72641	31.63018	51.70211	-445.57520	21.07214	66.86646	-453.95731	11.93589	51.59846	-446.55301	8.96689	30.94153	-476.85120	32.29931	15.46743	-486.61105	33.22249	23.95115	-502.67801	18.08561	11.06799	-505.30191	16.49705	
934	7.775	-61.71050	-464.40088	51.30502	-52.02570	-466.20398	52.42223	-29.66955	-466.28436	44.42390	-1.41470	-462.41364	42.79921	27.72579	-466.95859	41.67725	63.41213	-477.17120	30.90921	98.46153	-482.33472	19.93273	141.81935	-491.72498	9.37453	177.27470	-505.94385	6.78164	-44.99243	-455.72766	33.36848	-47.91829	-445.20840	25.01255	-63.00828	-447.69852	13.93131	-26.82976	-478.37466	25.12527	-16.13513	-485.75980	22.69730	-1.71224	-482.42209	-4.16008	36.56920	-460.47333	30.11254	50.47472	-445.89438	21.42038	65.71566	-453.94177	12.51077	50.65858	-446.41946	9.95978	28.54053	-476.68286	32.69492	12.03966	-485.59811	33.14834	17.14511	-502.28067	16.84036	4.10959	-502.77377	15.69678	
935	7.783	-63.79877	-464.62296	51.41792	-54.35648	-466.82663	53.14988	-31.76237	-466.19012	44.01996	-3.67421	-462.25180	42.96484	26.74100	-466.76233	40.70200	61.27265	-477.41489	31.41909	96.12371	-483.25558	20.78778	139.58504	-491.69077	9.62010	175.23424	-505.53024	6.72313	-48.03596	-455.85400	33.01048	-50.69699	-446.10675	23.86364	-65.62601	-448.27933	11.82830	-28.98256	-479.05228	25.07376	-17.67570	-485.32990	23.27270	-2.06860	-482.60239	-5.00309	36.36977	-458.94611	30.40692	48.90100	-446.25305	22.09783	64.52393	-453.88770	13.11224	49.71870	-446.28595	10.95268	26.17857	-476.51971	32.37662	9.03155	-484.87781	33.14086	10.94292	-501.68976	16.04527	-1.69309	-500.48230	14.15304	
936	7.792	-66.00552	-464.72647	51.03169	-56.74625	-467.61465	53.33294	-33.93129	-466.17743	44.05844	-5.80634	-462.00064	42.65357	24.72647	-466.59610	40.25804	58.92020	-477.53860	31.36232	93.75105	-483.68558	20.98599	137.41399	-491.88977	10.02299	173.18185	-505.27377	6.62420	-50.26636	-455.88208	32.65186	-53.32314	-446.78186	22.68718	-67.31017	-448.52783	8.77961	-30.59928	-478.40543	25.20985	-20.12696	-485.26947	24.10288	-3.04554	-482.82712	-5.55461	34.02244	-459.58868	29.76267	47.32994	-446.82330	22.33821	63.30789	-453.79367	13.74167	48.80001	-446.15524	11.91392	23.73542	-476.28827	32.42673	6.21538	-484.23166	32.76667	6.75945	-499.51587	13.34272	-5.75509	-498.13638	11.47733	
937	7.800	-68.14816	-464.58716	51.30131	-58.42331	-466.51746	51.74444	-36.25985	-466.10477	43.84112	-8.13611	-461.83810	42.56778	20.76517	-466.43210	41.06046	56.27729	-478.04575	31.24432	91.47958	-483.67395	20.56533	135.03293	-492.10922	10.04932	171.15198	-504.78909	6.53506	-51.91318	-455.91562	31.57317	-54.66037	-446.39432	21.56166	-67.82414	-447.38712	6.66374	-33.01697	-479.41788	25.52823	-21.31091	-484.90186	23.00709	-4.58112	-483.09894	-5.82964	31.65138	-459.94443	30.09011	45.81558	-447.17426	23.08748	62.08416	-453.65829	14.40044	47.92366	-446.03027	12.81186	21.27476	-476.05460	32.30607	3.61964	-483.80722	31.59229	3.53433	-497.94189	11.22301	-9.05309	-497.02661	8.99111	
938	7.808	-70.51003	-464.48679	51.04196	-60.96775	-466.08545	51.84872	-38.47514	-465.99948	43.66922	-10.56253	-461.72449	42.37994	16.32388	-466.09805	42.88923	54.16118	-477.71185	31.51076	88.95282	-484.58212	21.43057	132.82674	-491.82166	10.09626	168.95181	-504.34720	6.50295	-53.30328	-455.52603	31.40002	-55.16122	-445.37814	21.04035	-69.58804	-447.41370	7.92962	-36.53959	-479.94208	25.81117	-17.59882	-480.91238	9.09758	-6.61338	-483.42056	-5.84314	29.46556	-459.45203	29.75265	44.05653	-447.69330	23.27416	60.86933	-453.48007	15.08994	47.11083	-445.91385	13.61483	18.80629	-476.02988	32.04004	1.16990	-484.04059	30.58243	1.36185	-497.23276	10.04426	-10.74000	-496.23615	6.37686	
939	7.817	-72.83727	-464.00986	50.77023	-63.15562	-465.83600	51.65200	-40.88881	-466.12854	43.51299	-12.87112	-461.84146	42.06010	19.99905	-467.10355	38.54577	51.74588	-477.98740	31.54819	86.59533	-485.06384	21.65170	130.48230	-492.57043	10.58401	166.87526	-504.23257	6.73554	-55.36356	-454.99066	31.78386	-55.84930	-444.21152	21.28836	-69.66099	-447.25549	7.74215	-37.24064	-478.37173	24.48243	-25.90882	-485.97137	22.35271	-9.08039	-483.79468	-5.61010	27.25167	-459.67578	29.78561	42.06855	-448.01660	23.86080	59.68003	-453.25757	15.81155	46.38271	-445.80881	14.29120	16.60171	-476.06512	31.67253	-0.93649	-484.67966	29.77849	0.91044	-496.69876	8.04874	-11.04523	-496.03262	4.48338	
